<svg width="256" height="64" viewBox="0 0 256 64" xmlns="http://www.w3.org/2000/svg">
    <defs>
        <linearGradient x1=".007%" y1="58.58%" x2="1496.643%" y2="58.58%" id="iw8ir1hqqa">
            <stop stop-color="#FFF" offset="0%"/>
            <stop stop-color="#FFF" offset="8%"/>
            <stop stop-color="#FFF" offset="39%"/>
            <stop stop-color="#FFF" offset="66%"/>
            <stop stop-color="#FFF" offset="87%"/>
            <stop stop-color="#FFF" offset="100%"/>
        </linearGradient>
        <linearGradient x1="-106.767%" y1="58.986%" x2="1450.691%" y2="58.986%" id="3wvw3tdl2b">
            <stop stop-color="#FFF" offset="0%"/>
            <stop stop-color="#FFF" offset="8%"/>
            <stop stop-color="#FFF" offset="39%"/>
            <stop stop-color="#FFF" offset="66%"/>
            <stop stop-color="#FFF" offset="87%"/>
            <stop stop-color="#FFF" offset="100%"/>
        </linearGradient>
        <linearGradient x1="-199.486%" y1="42.341%" x2="1254.699%" y2="42.341%" id="da410tm58c">
            <stop stop-color="#FFF" offset="0%"/>
            <stop stop-color="#FFF" offset="8%"/>
            <stop stop-color="#FFF" offset="39%"/>
            <stop stop-color="#FFF" offset="66%"/>
            <stop stop-color="#FFF" offset="87%"/>
            <stop stop-color="#FFF" offset="100%"/>
        </linearGradient>
        <linearGradient x1="-311.831%" y1="43.683%" x2="1189.579%" y2="43.683%" id="1od5hylefd">
            <stop stop-color="#FFF" offset="0%"/>
            <stop stop-color="#FFF" offset="8%"/>
            <stop stop-color="#FFF" offset="39%"/>
            <stop stop-color="#FFF" offset="66%"/>
            <stop stop-color="#FFF" offset="87%"/>
            <stop stop-color="#FFF" offset="100%"/>
        </linearGradient>
        <linearGradient x1="-446.972%" y1="58.727%" x2="1128.772%" y2="58.727%" id="ye322idnge">
            <stop stop-color="#FFF" offset="0%"/>
            <stop stop-color="#FFF" offset="8%"/>
            <stop stop-color="#FFF" offset="39%"/>
            <stop stop-color="#FFF" offset="66%"/>
            <stop stop-color="#FFF" offset="87%"/>
            <stop stop-color="#FFF" offset="100%"/>
        </linearGradient>
        <linearGradient x1="-581.64%" y1="59.608%" x2="1049.07%" y2="59.608%" id="cc3u3f7xef">
            <stop stop-color="#FFF" offset="0%"/>
            <stop stop-color="#FFF" offset="8%"/>
            <stop stop-color="#FFF" offset="39%"/>
            <stop stop-color="#FFF" offset="66%"/>
            <stop stop-color="#FFF" offset="87%"/>
            <stop stop-color="#FFF" offset="100%"/>
        </linearGradient>
        <linearGradient x1="-702.97%" y1="46.053%" x2="811.243%" y2="46.053%" id="kuhjuo45lg">
            <stop stop-color="#FFF" offset="0%"/>
            <stop stop-color="#FFF" offset="8%"/>
            <stop stop-color="#FFF" offset="39%"/>
            <stop stop-color="#FFF" offset="66%"/>
            <stop stop-color="#FFF" offset="87%"/>
            <stop stop-color="#FFF" offset="100%"/>
        </linearGradient>
        <linearGradient x1="-815.974%" y1="58.837%" x2="699.259%" y2="58.837%" id="p7958w6c4h">
            <stop stop-color="#FFF" offset="0%"/>
            <stop stop-color="#FFF" offset="8%"/>
            <stop stop-color="#FFF" offset="39%"/>
            <stop stop-color="#FFF" offset="66%"/>
            <stop stop-color="#FFF" offset="87%"/>
            <stop stop-color="#FFF" offset="100%"/>
        </linearGradient>
        <linearGradient x1="-1055.114%" y1="45.307%" x2="670.252%" y2="45.307%" id="hqo81aj4li">
            <stop stop-color="#FFF" offset="0%"/>
            <stop stop-color="#FFF" offset="8%"/>
            <stop stop-color="#FFF" offset="39%"/>
            <stop stop-color="#FFF" offset="66%"/>
            <stop stop-color="#FFF" offset="87%"/>
            <stop stop-color="#FFF" offset="100%"/>
        </linearGradient>
        <linearGradient x1="-711.011%" y1="59.642%" x2="338.341%" y2="59.642%" id="q18h9vxiqj">
            <stop stop-color="#FFF" offset="0%"/>
            <stop stop-color="#FFF" offset="8%"/>
            <stop stop-color="#FFF" offset="39%"/>
            <stop stop-color="#FFF" offset="66%"/>
            <stop stop-color="#FFF" offset="87%"/>
            <stop stop-color="#FFF" offset="100%"/>
        </linearGradient>
        <linearGradient x1="-1177.209%" y1="58.615%" x2="325.282%" y2="58.615%" id="9fmvk36isk">
            <stop stop-color="#FFF" offset="0%"/>
            <stop stop-color="#FFF" offset="8%"/>
            <stop stop-color="#FFF" offset="39%"/>
            <stop stop-color="#FFF" offset="66%"/>
            <stop stop-color="#FFF" offset="87%"/>
            <stop stop-color="#FFF" offset="100%"/>
        </linearGradient>
        <linearGradient x1="-1606.172%" y1="59.616%" x2="258.591%" y2="59.616%" id="skwhm43xal">
            <stop stop-color="#FFF" offset="0%"/>
            <stop stop-color="#FFF" offset="8%"/>
            <stop stop-color="#FFF" offset="39%"/>
            <stop stop-color="#FFF" offset="66%"/>
            <stop stop-color="#FFF" offset="87%"/>
            <stop stop-color="#FFF" offset="100%"/>
        </linearGradient>
        <linearGradient x1="-3342.665%" y1="65.657%" x2="282.984%" y2="65.657%" id="pkmoyk3bpm">
            <stop stop-color="#FFF" offset="0%"/>
            <stop stop-color="#FFF" offset="8%"/>
            <stop stop-color="#FFF" offset="39%"/>
            <stop stop-color="#FFF" offset="66%"/>
            <stop stop-color="#FFF" offset="87%"/>
            <stop stop-color="#FFF" offset="100%"/>
        </linearGradient>
        <linearGradient x1="-2071.846%" y1="58.881%" x2="99.979%" y2="58.881%" id="e4mj3dcptn">
            <stop stop-color="#FFF" offset="0%"/>
            <stop stop-color="#FFF" offset="8%"/>
            <stop stop-color="#FFF" offset="39%"/>
            <stop stop-color="#FFF" offset="66%"/>
            <stop stop-color="#FFF" offset="87%"/>
            <stop stop-color="#FFF" offset="100%"/>
        </linearGradient>
    </defs>
    <g fill-rule="nonzero" fill="none">
        <g fill="#FFF">
            <path d="M20.28 26.27a8.016 8.016 0 0 0-2.574-1.72 8.04 8.04 0 0 0-3.163-.624 8.277 8.277 0 0 0-4.133 1.09 7.86 7.86 0 0 0-1.64 1.255 8.078 8.078 0 0 0-1.262 1.633A8.193 8.193 0 0 0 6.4 32.04c0 .76.097 1.487.29 2.183.194.697.467 1.347.818 1.948a8.016 8.016 0 0 0 4.851 3.712c.697.19 1.425.285 2.184.285a8.114 8.114 0 0 0 4.096-1.095 8.02 8.02 0 0 0 2.903-2.902c.35-.601.622-1.251.817-1.948.193-.696.29-1.424.29-2.183a8.008 8.008 0 0 0-.636-3.198 8.17 8.17 0 0 0-1.733-2.572zm-2.525 7.299a3.63 3.63 0 0 1-.693 1.23c-.302.347-.668.622-1.102.823a3.4 3.4 0 0 1-1.454.303 3.6 3.6 0 0 1-1.49-.303 3.37 3.37 0 0 1-1.127-.822 3.668 3.668 0 0 1-.717-1.231 4.509 4.509 0 0 1-.253-1.528c0-.544.084-1.03.253-1.51a3.99 3.99 0 0 1 .717-1.262 3.37 3.37 0 0 1 1.126-.86c.441-.21.938-.315 1.491-.315a3.234 3.234 0 0 1 2.556 1.175c.301.363.532.783.693 1.263.16.478.241.98.241 1.51 0 .528-.08 1.052-.241 1.527zM38.34 38.548l-4.814-6.73 4.838-6.828c.099-.115.153-.222.161-.321a.39.39 0 0 0-.062-.26.49.49 0 0 0-.204-.173.643.643 0 0 0-.279-.061h-3.923a.67.67 0 0 0-.426.142c-.12.095-.25.25-.39.463-.149.24-.324.532-.526.878s-.412.704-.63 1.07l-.637 1.064c-.207.342-.388.625-.545.848l-2.363-3.822a5.611 5.611 0 0 0-.353-.464.467.467 0 0 0-.365-.179h-3.886c-.222 0-.382.035-.477.106a.37.37 0 0 0-.16.26.632.632 0 0 0 .068.339c.057.124.127.239.21.346l4.665 6.63-4.924 6.94c-.05.074-.107.166-.173.278a.456.456 0 0 0-.062.34l.025.123a.572.572 0 0 0 .21.273.57.57 0 0 0 .297.074h4.306a.68.68 0 0 0 .409-.16c.14-.107.256-.252.346-.434l2.227-4.008 2.203 3.959c.181.428.457.643.829.643h4.009c.264 0 .452-.043.563-.13a.434.434 0 0 0 .18-.327.93.93 0 0 0-.093-.434 2.678 2.678 0 0 0-.254-.445zM56.148 24.254c-.132-.061-.313-.092-.544-.092h-3.18c-.248 0-.441.045-.582.136-.14.09-.256.267-.346.532l-3.428 9.958-3.502-9.958a1.204 1.204 0 0 0-.296-.477.702.702 0 0 0-.507-.192h-3.057c-.437 0-.72.117-.848.353-.129.235-.126.517.006.848l5.903 14.46-1.943 5.046a.49.49 0 0 0-.069.112.568.568 0 0 0-.043.247c0 .28.069.493.204.637.136.144.39.216.76.216h2.86a.777.777 0 0 0 .543-.204c.15-.136.251-.316.31-.538l-.037.062c.115-.313.285-.759.507-1.335.222-.578.484-1.248.786-2.01.301-.763.633-1.6.996-2.512.363-.911.74-1.861 1.132-2.85.391-.99.794-1.998 1.206-3.025a4949.144 4949.144 0 0 1 2.376-5.9l1.027-2.542c.05-.124.083-.25.099-.377a.576.576 0 0 0-.055-.346.57.57 0 0 0-.279-.248h.001zM72.793 24.348a1.108 1.108 0 0 0-.662-.235h-1.844c-.165 0-.3.02-.403.062a.628.628 0 0 0-.253.179.923.923 0 0 0-.161.29l-.136.384-.346 1.1a8.957 8.957 0 0 0-.804-.865 4.917 4.917 0 0 0-2.116-1.187 5.284 5.284 0 0 0-1.398-.172c-1.114 0-2.145.209-3.094.624a7.53 7.53 0 0 0-2.463 1.72 7.875 7.875 0 0 0-1.62 2.572 8.582 8.582 0 0 0-.582 3.173c0 1.13.194 2.181.582 3.13a7.2 7.2 0 0 0 1.62 2.442 7.386 7.386 0 0 0 2.463 1.59c.95.38 1.98.57 3.094.57.503 0 .944-.06 1.324-.18.38-.12.72-.275 1.021-.469.302-.193.576-.414.823-.662.248-.247.49-.498.73-.754v.167c0 .037.003.069.007.093a.65.65 0 0 1 .006.092v.167c0 .215-.009.42-.025.619-.017.198-.055.379-.112.544a2.219 2.219 0 0 1-.55.964c-.268.28-.578.518-.93.71a4.92 4.92 0 0 1-2.295.588c-.221.001-.471-.01-.747-.03a5.105 5.105 0 0 1-1.67-.42 2.472 2.472 0 0 1-.712-.477c-.272-.198-.5-.297-.68-.297a.604.604 0 0 0-.323.093 1.66 1.66 0 0 0-.322.278l-1.176 1.62c-.158.231-.236.45-.236.656 0 .165.044.316.13.452.087.135.192.25.316.34.363.321.782.604 1.256.848.474.242.964.443 1.473.6.507.156 1.016.274 1.528.353.512.078.99.118 1.436.118 1.146 0 2.219-.182 3.217-.544a7.393 7.393 0 0 0 2.593-1.583c.73-.693 1.306-1.542 1.726-2.548.42-1.007.631-2.153.631-3.439V25.028a.878.878 0 0 0-.086-.397.826.826 0 0 0-.23-.284v.001zm-3.954 7.867a3.761 3.761 0 0 1-.353 1.447 3.77 3.77 0 0 1-2.054 1.936 4.008 4.008 0 0 1-1.492.279 3.574 3.574 0 0 1-1.467-.297 3.35 3.35 0 0 1-1.131-.816 3.624 3.624 0 0 1-.725-1.231 4.544 4.544 0 0 1-.253-1.54c0-.552.084-1.03.253-1.51.17-.477.411-.894.725-1.248a3.53 3.53 0 0 1 1.131-.848c.441-.21.93-.316 1.467-.316s1.025.1 1.491.302c.467.202.873.475 1.22.817.346.342.625.739.835 1.188.21.449.328.926.353 1.429v.408zM89.753 27.669a8.063 8.063 0 0 0-2.766-2.704 7.72 7.72 0 0 0-1.813-.767 7.31 7.31 0 0 0-1.992-.273c-.751 0-1.465.099-2.141.297a7.75 7.75 0 0 0-1.882.828c-.577.355-1.099.782-1.565 1.28a8.093 8.093 0 0 0-1.188 1.64 8.29 8.29 0 0 0-.755 1.91 8.31 8.31 0 0 0-.265 2.11c0 1.162.222 2.238.668 3.228a8.226 8.226 0 0 0 1.807 2.58c.759.73 1.64 1.3 2.648 1.713a8.381 8.381 0 0 0 3.205.618 7.461 7.461 0 0 0 2.884-.563 8.238 8.238 0 0 0 2.45-1.565c.123-.09.23-.195.321-.316a.69.69 0 0 0 .136-.426.944.944 0 0 0-.037-.265.84.84 0 0 0-.173-.29l-1.312-1.485a2.58 2.58 0 0 0-.377-.322.591.591 0 0 0-.328-.112.602.602 0 0 0-.303.08c-.095.055-.21.135-.34.242-.15.149-.345.29-.588.426a5.218 5.218 0 0 1-.805.36 6.624 6.624 0 0 1-.91.247 4.773 4.773 0 0 1-.915.092c-.33 0-.68-.045-1.05-.135a3.461 3.461 0 0 1-1.052-.452 3.12 3.12 0 0 1-.872-.848c-.253-.354-.42-.796-.501-1.323h8.91c.52 0 .913-.031 1.182-.093.268-.06.46-.173.575-.334.116-.16.18-.377.192-.65.012-.272.018-.621.018-1.05 0-.66-.092-1.3-.278-1.924a7.33 7.33 0 0 0-.786-1.757l-.002.003zm-9.665 2.295a4.52 4.52 0 0 1 .513-.83c.21-.272.447-.514.711-.73a3.49 3.49 0 0 1 .849-.512 2.38 2.38 0 0 1 .934-.192c.446 0 .835.057 1.17.173.333.115.63.276.89.482.26.207.491.446.694.717.202.273.39.57.564.892h-6.324zM106.478 25.962a5.62 5.62 0 0 0-1.882-1.48c-.738-.362-1.577-.544-2.518-.544-.66 0-1.258.072-1.795.217a6.485 6.485 0 0 0-1.416.548 4.57 4.57 0 0 0-1.027.74c-.277.272-.477.535-.601.79l-.26-1.086a7.724 7.724 0 0 0-.13-.358 1.167 1.167 0 0 0-.178-.309.83.83 0 0 0-.273-.216.843.843 0 0 0-.383-.08h-1.869c-.107 0-.22.011-.34.037a.771.771 0 0 0-.34.173l.075-.038a.775.775 0 0 0-.291.309.909.909 0 0 0-.106.431v13.832c0 .289.078.52.236.693.156.173.412.26.767.26h2.797c.124 0 .234-.012.328-.037.095-.026.196-.07.303-.136a.673.673 0 0 0 .242-.322c.054-.14.08-.28.08-.42v-8.04c.025-.372.126-.716.303-1.033.178-.317.396-.594.656-.829s.544-.418.854-.55c.31-.132.613-.198.91-.198.346 0 .687.07 1.02.21.335.14.634.331.898.575.265.244.477.524.637.84.161.318.242.654.242 1.008v8.053c0 .346.066.58.198.699.132.12.375.179.73.179h2.859c.296 0 .513-.08.65-.242.135-.16.204-.397.204-.71v-8.103c0-.95-.135-1.84-.403-2.676a6.515 6.515 0 0 0-1.176-2.19l-.001.003zM134.245 27.91a8.425 8.425 0 0 0-1.282-1.645 8.187 8.187 0 0 0-3.58-2.097 7.857 7.857 0 0 0-2.142-.29 7.487 7.487 0 0 0-3.059.624 7.924 7.924 0 0 0-2.477 1.712v-1.51c0-.362-.181-.543-.544-.543h-1.275c-.388 0-.581.181-.581.544V44.1c0 .164.054.296.16.396a.549.549 0 0 0 .384.149h1.287a.55.55 0 0 0 .414-.161.533.533 0 0 0 .155-.383v-6.309a7.914 7.914 0 0 0 2.477 1.714c.941.417 1.961.625 3.06.625a7.959 7.959 0 0 0 4.074-1.12 8.394 8.394 0 0 0 2.929-2.931c.359-.607.635-1.254.83-1.942.194-.688.29-1.404.29-2.146a7.895 7.895 0 0 0-1.12-4.082zm-1.844 6.296a6.116 6.116 0 0 1-1.2 1.874 5.83 5.83 0 0 1-1.781 1.292c-.68.32-1.41.483-2.185.483a5.14 5.14 0 0 1-2.202-.483 5.888 5.888 0 0 1-1.794-1.292 6.155 6.155 0 0 1-1.212-1.874 5.679 5.679 0 0 1-.446-2.214c0-.768.15-1.516.446-2.22a5.965 5.965 0 0 1 1.212-1.85 5.895 5.895 0 0 1 1.794-1.262 5.228 5.228 0 0 1 2.202-.47c.784 0 1.503.158 2.185.47a5.807 5.807 0 0 1 1.781 1.262 5.919 5.919 0 0 1 1.2 1.85c.294.704.44 1.444.44 2.22 0 .776-.146 1.505-.44 2.214zM152.834 24.162h-1.274c-.363 0-.545.181-.545.544v1.51a7.894 7.894 0 0 0-2.475-1.713 7.46 7.46 0 0 0-3.056-.625c-.742 0-1.456.098-2.141.291a8.166 8.166 0 0 0-3.577 2.097 8.419 8.419 0 0 0-1.28 1.645 7.964 7.964 0 0 0-1.12 4.082c0 .742.097 1.458.29 2.146.194.688.47 1.336.83 1.942.359.607.785 1.157 1.28 1.651a8.422 8.422 0 0 0 1.646 1.28 7.97 7.97 0 0 0 4.072 1.12 7.46 7.46 0 0 0 3.056-.625 7.897 7.897 0 0 0 2.475-1.713v1.546c0 .15.052.277.155.383a.55.55 0 0 0 .415.161h1.287c.149 0 .276-.049.383-.149a.513.513 0 0 0 .161-.396V24.706c0-.363-.193-.544-.582-.544zm-2.14 10.044c-.297.71-.701 1.335-1.212 1.874-.51.54-1.11.971-1.798 1.292a5.118 5.118 0 0 1-2.194.483c-.774 0-1.502-.161-2.182-.483a5.845 5.845 0 0 1-1.78-1.292 6.141 6.141 0 0 1-1.2-1.874 5.738 5.738 0 0 1-.438-2.214c0-.768.147-1.516.439-2.22a5.908 5.908 0 0 1 1.199-1.85 5.837 5.837 0 0 1 1.78-1.262 5.147 5.147 0 0 1 2.182-.47c.775 0 1.507.158 2.194.47a5.839 5.839 0 0 1 3.01 3.111c.296.705.444 1.445.444 2.22 0 .777-.149 1.506-.445 2.215zM168.674 24.162h-1.373a.646.646 0 0 0-.408.124.792.792 0 0 0-.248.333l-.6 1.571-.792 2.06c-.285.738-.58 1.499-.885 2.282l-.872 2.244c-.276.713-.53 1.36-.76 1.942-.231.581-.413 1.041-.545 1.38a625.359 625.359 0 0 1-2.235-5.554c-.31-.783-.607-1.545-.897-2.282l-.804-2.06c-.247-.635-.449-1.159-.606-1.57a.792.792 0 0 0-.248-.334.649.649 0 0 0-.408-.124h-1.3c-.38 0-.57.144-.57.432a1.024 1.024 0 0 0 .05.334l5.742 13.966-2.066 4.985a.64.64 0 0 1-.025.117.677.677 0 0 0-.026.18c0 .304.199.457.594.457h1.225c.322 0 .541-.153.656-.458v.026l4.95-12.123 2.91-7.162a.64.64 0 0 1 .036-.136.809.809 0 0 0 .038-.111.346.346 0 0 0 .012-.087c0-.288-.182-.433-.545-.433zM192.772 25.876a5.567 5.567 0 0 0-1.95-1.436c-.775-.35-1.67-.526-2.684-.526-.545 0-1.08.05-1.603.15a5.65 5.65 0 0 0-1.473.488 4.722 4.722 0 0 0-1.237.885 4.262 4.262 0 0 0-.898 1.324c-.495-.924-1.155-1.626-1.98-2.11-.825-.482-1.889-.723-3.192-.723-.544 0-1.024.054-1.436.16a4.37 4.37 0 0 0-1.108.446c-.325.19-.62.41-.884.662a8.073 8.073 0 0 0-.742.81V24.72a.531.531 0 0 0-.155-.383.55.55 0 0 0-.415-.16h-1.287a.541.541 0 0 0-.383.148.513.513 0 0 0-.16.396v14.622c0 .362.193.544.58.544h1.275c.363 0 .545-.182.545-.544V30.2c0-.627.119-1.183.359-1.669.239-.486.55-.895.935-1.225.383-.33.814-.579 1.292-.748.478-.17.953-.254 1.423-.254.742 0 1.37.133 1.881.397.512.264.922.606 1.232 1.027.309.42.532.888.668 1.403.136.516.204 1.021.204 1.516v8.437c0 .288.043.494.13.618.086.124.282.185.587.185h.916c.222 0 .406-.07.55-.21.144-.14.216-.35.216-.63v-8.4c0-.676.09-1.284.273-1.824.181-.54.443-.998.786-1.373.342-.375.76-.662 1.255-.86.495-.198 1.056-.296 1.684-.296.742 0 1.37.132 1.881.396.512.264.921.606 1.231 1.027.31.42.533.888.668 1.404.136.515.205 1.02.205 1.515v8.437c0 .288.043.495.13.618.086.124.282.186.587.186h.915c.223 0 .407-.07.55-.21.145-.14.217-.35.217-.63v-8.4c0-.931-.135-1.806-.402-2.622a6.163 6.163 0 0 0-1.189-2.134l.003-.006zM211.6 27.093a7.774 7.774 0 0 0-1.318-1.36 7.98 7.98 0 0 0-1.578-.996 8.491 8.491 0 0 0-1.758-.612 8.197 8.197 0 0 0-1.844-.21c-.783 0-1.528.097-2.233.29a8.167 8.167 0 0 0-1.968.823 7.82 7.82 0 0 0-1.64 1.274 7.934 7.934 0 0 0-1.244 1.645 8.305 8.305 0 0 0-1.07 4.094c0 .742.098 1.458.296 2.146.199.688.479 1.334.841 1.936a8.479 8.479 0 0 0 2.951 2.926c.607.359 1.252.635 1.937.828.685.194 1.394.29 2.129.29.52 0 1.013-.045 1.479-.135.466-.091.91-.218 1.33-.383.42-.165.823-.36 1.206-.587.383-.227.753-.48 1.108-.76.173-.14.294-.262.365-.366.07-.103.106-.199.106-.29a.411.411 0 0 0-.037-.18.716.716 0 0 0-.099-.154 5.786 5.786 0 0 1-.149-.198c-.066-.083-.15-.193-.253-.334l-.403-.544c-.115-.149-.235-.222-.36-.222a.472.472 0 0 0-.265.086 2.37 2.37 0 0 0-.241.185l-.025.025c-.24.199-.487.39-.743.576-.256.185-.535.35-.835.494a4.96 4.96 0 0 1-1.002.346c-.368.087-.777.13-1.231.13a5.085 5.085 0 0 1-1.869-.353 5.761 5.761 0 0 1-1.64-.978 6.261 6.261 0 0 1-1.262-1.466 5.64 5.64 0 0 1-.737-1.83h13.043c.363 0 .544-.194.544-.581.017-1.18-.103-2.222-.359-3.13a7.366 7.366 0 0 0-1.176-2.425h.004zm-12.041 3.736c.164-.767.474-1.47.927-2.108a6.27 6.27 0 0 1 1.62-1.59c.47-.289.968-.504 1.492-.644a6.111 6.111 0 0 1 1.59-.21 5.959 5.959 0 0 1 3.664 1.249c.503.396.921.874 1.257 1.435.334.56.546 1.183.636 1.867H199.56v.001zM227.326 25.888a5.567 5.567 0 0 0-1.948-1.436c-.776-.35-1.67-.526-2.686-.526a4.962 4.962 0 0 0-2.667.737c-.359.218-.682.466-.972.742-.288.276-.549.558-.78.848v-1.534a.531.531 0 0 0-.154-.383.55.55 0 0 0-.415-.161h-1.287a.541.541 0 0 0-.383.149.513.513 0 0 0-.16.396v14.622c0 .362.192.544.58.544h1.275c.363 0 .545-.182.545-.544V30.2c0-.627.134-1.183.402-1.67a4.045 4.045 0 0 1 1.021-1.224c.412-.33.87-.579 1.373-.748.504-.17.99-.254 1.46-.254.743 0 1.37.132 1.882.397.512.264.921.606 1.231 1.026.31.42.532.89.668 1.404.136.515.204 1.021.204 1.516v8.436c0 .289.044.495.13.619.087.124.283.185.588.185h.915c.222 0 .406-.07.55-.21.145-.14.217-.351.217-.63v-8.4c0-.932-.135-1.806-.403-2.623a6.163 6.163 0 0 0-1.188-2.134l.002-.002zM236.78 24.15h-1.721v-2.66c0-.099-.005-.192-.012-.279a.576.576 0 0 0-.069-.23.348.348 0 0 0-.179-.148.715.715 0 0 0-.334-.025c-.23.04-.445.078-.644.111-.164.034-.324.06-.477.08-.152.021-.253.04-.302.056a.647.647 0 0 0-.297.155c-.058.061-.087.163-.087.303v2.634h-1.435c-.207 0-.36.027-.458.08-.099.055-.149.188-.149.403v1.15c0 .216.05.354.149.415.098.062.251.092.458.092h1.435v10.725c0 .61.098 1.11.291 1.502.194.392.444.701.749.928.305.227.65.386 1.033.476.383.09.765.136 1.145.136a.63.63 0 0 0 .458-.167.599.599 0 0 0 .173-.452V38.42c0-.205-.063-.366-.187-.482a.661.661 0 0 0-.47-.173c-.247 0-.44-.058-.58-.173-.141-.115-.211-.317-.211-.607V26.29h1.72c.19 0 .328-.046.415-.136.086-.09.13-.242.13-.457v-.978c0-.214-.044-.363-.13-.446-.087-.082-.225-.123-.415-.123zM249.213 33.718a4.202 4.202 0 0 0-1.076-1.355 6.712 6.712 0 0 0-1.664-1.002 12.54 12.54 0 0 0-2.147-.693 8.51 8.51 0 0 1-1.052-.333 5.514 5.514 0 0 1-1.002-.507 3.194 3.194 0 0 1-.754-.662 1.236 1.236 0 0 1-.297-.797c0-.38.08-.708.242-.984.16-.276.374-.505.644-.687.268-.181.57-.313.91-.396a4.397 4.397 0 0 1 1.05-.124c.404 0 .754.048 1.046.142.293.095.555.222.785.383.231.16.438.345.62.55.18.207.366.42.557.644.115.14.222.235.322.284.098.05.242.02.433-.086l.965-.73c.156-.116.23-.233.222-.353a1.013 1.013 0 0 0-.16-.427c-.323-.437-.631-.822-.93-1.156a4.694 4.694 0 0 0-.977-.84 4.09 4.09 0 0 0-1.22-.514c-.458-.115-1.004-.173-1.64-.173-.776 0-1.482.107-2.122.322a4.959 4.959 0 0 0-1.646.903 4.097 4.097 0 0 0-1.07 1.398 4.193 4.193 0 0 0-.383 1.806c0 .602.107 1.145.322 1.627.215.482.526.911.934 1.286.409.374.904.705 1.485.99.582.284 1.244.525 1.986.723.42.116.844.227 1.27.334.424.107.808.25 1.15.427.343.177.621.402.835.673.215.273.322.63.322 1.076 0 .412-.113.769-.34 1.07a2.725 2.725 0 0 1-.84.737c-.335.19-.692.33-1.071.42a4.47 4.47 0 0 1-1.04.136c-.23 0-.507-.04-.829-.118a4.469 4.469 0 0 1-.952-.353 3.828 3.828 0 0 1-.873-.6 2.198 2.198 0 0 1-.587-.848 1.08 1.08 0 0 0-.273-.378c-.115-.103-.276-.112-.483-.03l-1.175.543a.859.859 0 0 0-.192.124.365.365 0 0 0-.099.142.35.35 0 0 0-.006.198c.017.078.046.179.087.302.205.561.507 1.048.903 1.46.397.411.838.754 1.324 1.026a6.064 6.064 0 0 0 1.554.607c.549.132 1.082.198 1.603.198.825 0 1.588-.107 2.288-.322a5.466 5.466 0 0 0 1.813-.921c.507-.4.904-.886 1.188-1.46.285-.572.427-1.218.427-1.935 0-.65-.129-1.235-.383-1.75l-.004.003z"/>
        </g>
        <path d="M13.88 5.47a8.016 8.016 0 0 0-2.574-1.72 8.04 8.04 0 0 0-3.163-.624 8.277 8.277 0 0 0-4.133 1.09A7.86 7.86 0 0 0 2.37 5.47a8.078 8.078 0 0 0-1.262 1.633A8.193 8.193 0 0 0 0 11.24c0 .76.097 1.487.29 2.183.194.697.467 1.347.818 1.948a8.016 8.016 0 0 0 4.851 3.712c.697.19 1.425.285 2.184.285a8.114 8.114 0 0 0 4.096-1.095 8.02 8.02 0 0 0 2.903-2.902c.35-.601.622-1.251.817-1.948.193-.696.29-1.424.29-2.183a8.008 8.008 0 0 0-.636-3.198 8.17 8.17 0 0 0-1.733-2.572zm-2.525 7.299a3.63 3.63 0 0 1-.693 1.23c-.302.347-.668.622-1.102.823a3.4 3.4 0 0 1-1.454.303 3.6 3.6 0 0 1-1.49-.303A3.37 3.37 0 0 1 5.488 14a3.668 3.668 0 0 1-.717-1.231 4.509 4.509 0 0 1-.253-1.528c0-.544.084-1.03.253-1.51A3.99 3.99 0 0 1 5.49 8.47a3.37 3.37 0 0 1 1.126-.86c.441-.21.938-.315 1.491-.315a3.234 3.234 0 0 1 2.556 1.175c.301.363.532.783.693 1.263.16.478.241.98.241 1.51 0 .528-.08 1.052-.241 1.527z" fill="url(#iw8ir1hqqa)" transform="translate(6.4 20.8)"/>
        <path d="m31.94 17.748-4.814-6.73 4.838-6.828c.099-.115.153-.222.161-.321a.39.39 0 0 0-.062-.26.49.49 0 0 0-.204-.173.643.643 0 0 0-.279-.061h-3.923a.67.67 0 0 0-.426.142c-.12.095-.25.25-.39.463-.149.24-.324.532-.526.878s-.412.704-.63 1.07l-.637 1.064c-.207.342-.388.625-.545.848L22.14 4.018a5.611 5.611 0 0 0-.353-.464.467.467 0 0 0-.365-.179h-3.886c-.222 0-.382.035-.477.106a.37.37 0 0 0-.16.26.632.632 0 0 0 .068.339c.057.124.127.239.21.346l4.665 6.63-4.924 6.94c-.05.074-.107.166-.173.278a.456.456 0 0 0-.062.34l.025.123a.572.572 0 0 0 .21.273.57.57 0 0 0 .297.074h4.306a.68.68 0 0 0 .409-.16c.14-.107.256-.252.346-.434l2.227-4.008 2.203 3.959c.181.428.457.643.829.643h4.009c.264 0 .452-.043.563-.13a.434.434 0 0 0 .18-.327.93.93 0 0 0-.093-.434 2.678 2.678 0 0 0-.254-.445z" fill="url(#3wvw3tdl2b)" transform="translate(6.4 20.8)"/>
        <path d="M49.748 3.454c-.132-.061-.313-.092-.544-.092h-3.18c-.248 0-.441.045-.582.136-.14.09-.256.267-.346.532l-3.428 9.958-3.502-9.958a1.204 1.204 0 0 0-.296-.477.702.702 0 0 0-.507-.192h-3.057c-.437 0-.72.117-.848.353-.129.235-.126.517.006.848l5.903 14.46-1.943 5.046a.49.49 0 0 0-.069.112.568.568 0 0 0-.043.247c0 .28.069.493.204.637.136.144.39.216.76.216h2.86a.777.777 0 0 0 .543-.204c.15-.136.251-.316.31-.538l-.037.062c.115-.313.285-.759.507-1.335.222-.578.484-1.248.786-2.01.301-.763.633-1.6.996-2.512.363-.911.74-1.861 1.132-2.85.391-.99.794-1.998 1.206-3.025a4949.144 4949.144 0 0 1 2.376-5.9l1.027-2.542c.05-.124.083-.25.099-.377a.576.576 0 0 0-.055-.346.57.57 0 0 0-.279-.248h.001z" fill="url(#da410tm58c)" transform="translate(6.4 20.8)"/>
        <path d="M66.393 3.548a1.108 1.108 0 0 0-.662-.235h-1.844c-.165 0-.3.02-.403.062a.628.628 0 0 0-.253.179.923.923 0 0 0-.161.29l-.136.384-.346 1.1a8.957 8.957 0 0 0-.804-.865 4.917 4.917 0 0 0-2.116-1.187 5.284 5.284 0 0 0-1.398-.172c-1.114 0-2.145.209-3.094.624a7.53 7.53 0 0 0-2.463 1.72 7.875 7.875 0 0 0-1.62 2.572 8.582 8.582 0 0 0-.582 3.173c0 1.13.194 2.181.582 3.13a7.2 7.2 0 0 0 1.62 2.442 7.386 7.386 0 0 0 2.463 1.59c.95.38 1.98.57 3.094.57.503 0 .944-.06 1.324-.18.38-.12.72-.275 1.021-.469.302-.193.576-.414.823-.662.248-.247.49-.498.73-.754v.167c0 .037.003.069.007.093a.65.65 0 0 1 .006.092v.167c0 .215-.009.42-.025.619-.017.198-.055.379-.112.544a2.219 2.219 0 0 1-.55.964c-.268.28-.578.518-.93.71a4.92 4.92 0 0 1-2.295.588c-.221.001-.471-.01-.747-.03a5.105 5.105 0 0 1-1.67-.42 2.472 2.472 0 0 1-.712-.477c-.272-.198-.5-.297-.68-.297a.604.604 0 0 0-.323.093 1.66 1.66 0 0 0-.322.278l-1.176 1.62c-.158.231-.236.45-.236.656 0 .165.044.316.13.452.087.135.192.25.316.34.363.321.782.604 1.256.848.474.242.964.443 1.473.6.507.156 1.016.274 1.528.353.512.078.99.118 1.436.118 1.146 0 2.219-.182 3.217-.544a7.393 7.393 0 0 0 2.593-1.583c.73-.693 1.306-1.542 1.726-2.548.42-1.007.631-2.153.631-3.439V4.228a.878.878 0 0 0-.086-.397.826.826 0 0 0-.23-.284v.001zm-3.954 7.867a3.761 3.761 0 0 1-.353 1.447 3.77 3.77 0 0 1-2.054 1.936 4.008 4.008 0 0 1-1.492.279 3.574 3.574 0 0 1-1.467-.297 3.35 3.35 0 0 1-1.131-.816 3.624 3.624 0 0 1-.725-1.231 4.544 4.544 0 0 1-.253-1.54c0-.552.084-1.03.253-1.51.17-.477.411-.894.725-1.248a3.53 3.53 0 0 1 1.131-.848c.441-.21.93-.316 1.467-.316s1.025.1 1.491.302c.467.202.873.475 1.22.817.346.342.625.739.835 1.188.21.449.328.926.353 1.429v.408z" fill="url(#1od5hylefd)" transform="translate(6.4 20.8)"/>
        <path d="M83.353 6.869a8.063 8.063 0 0 0-2.766-2.704 7.72 7.72 0 0 0-1.813-.767 7.31 7.31 0 0 0-1.992-.273c-.751 0-1.465.099-2.141.297a7.75 7.75 0 0 0-1.882.828c-.577.355-1.099.782-1.565 1.28a8.093 8.093 0 0 0-1.188 1.64 8.29 8.29 0 0 0-.755 1.91 8.31 8.31 0 0 0-.265 2.11c0 1.162.222 2.238.668 3.228a8.226 8.226 0 0 0 1.807 2.58c.759.73 1.64 1.3 2.648 1.713a8.381 8.381 0 0 0 3.205.618 7.461 7.461 0 0 0 2.884-.563 8.238 8.238 0 0 0 2.45-1.565c.123-.09.23-.195.321-.316a.69.69 0 0 0 .136-.426.944.944 0 0 0-.037-.265.84.84 0 0 0-.173-.29l-1.312-1.485a2.58 2.58 0 0 0-.377-.322.591.591 0 0 0-.328-.112.602.602 0 0 0-.303.08c-.095.055-.21.135-.34.242-.15.149-.345.29-.588.426a5.218 5.218 0 0 1-.805.36 6.624 6.624 0 0 1-.91.247 4.773 4.773 0 0 1-.915.092c-.33 0-.68-.045-1.05-.135a3.461 3.461 0 0 1-1.052-.452 3.12 3.12 0 0 1-.872-.848c-.253-.354-.42-.796-.501-1.323h8.91c.52 0 .913-.031 1.182-.093.268-.06.46-.173.575-.334.116-.16.18-.377.192-.65.012-.272.018-.621.018-1.05 0-.66-.092-1.3-.278-1.924a7.33 7.33 0 0 0-.786-1.757l-.002.003zm-9.665 2.295a4.52 4.52 0 0 1 .513-.83c.21-.272.447-.514.711-.73a3.49 3.49 0 0 1 .849-.512 2.38 2.38 0 0 1 .934-.192c.446 0 .835.057 1.17.173.333.115.63.276.89.482.26.207.491.446.694.717.202.273.39.57.564.892h-6.324z" fill="url(#ye322idnge)" transform="translate(6.4 20.8)"/>
        <path d="M100.078 5.162a5.62 5.62 0 0 0-1.882-1.48c-.738-.362-1.577-.544-2.518-.544-.66 0-1.258.072-1.795.217a6.485 6.485 0 0 0-1.416.548 4.57 4.57 0 0 0-1.027.74c-.277.272-.477.535-.601.79l-.26-1.086a7.724 7.724 0 0 0-.13-.358 1.167 1.167 0 0 0-.178-.309.83.83 0 0 0-.273-.216.843.843 0 0 0-.383-.08h-1.869c-.107 0-.22.011-.34.037a.771.771 0 0 0-.34.173l.075-.038a.775.775 0 0 0-.291.309.909.909 0 0 0-.106.431v13.832c0 .289.078.52.236.693.156.173.412.26.767.26h2.797c.124 0 .234-.012.328-.037.095-.026.196-.07.303-.136a.673.673 0 0 0 .242-.322c.054-.14.08-.28.08-.42v-8.04c.025-.372.126-.716.303-1.033.178-.317.396-.594.656-.829s.544-.418.854-.55c.31-.132.613-.198.91-.198.346 0 .687.07 1.02.21.335.14.634.331.898.575.265.244.477.524.637.84.161.318.242.654.242 1.008v8.053c0 .346.066.58.198.699.132.12.375.179.73.179h2.859c.296 0 .513-.08.65-.242.135-.16.204-.397.204-.71v-8.103c0-.95-.135-1.84-.403-2.676a6.515 6.515 0 0 0-1.176-2.19l-.001.003z" fill="url(#cc3u3f7xef)" transform="translate(6.4 20.8)"/>
        <path d="M127.845 7.11a8.425 8.425 0 0 0-1.282-1.645 8.187 8.187 0 0 0-3.58-2.097 7.857 7.857 0 0 0-2.142-.29 7.487 7.487 0 0 0-3.059.624 7.924 7.924 0 0 0-2.477 1.712v-1.51c0-.362-.181-.543-.544-.543h-1.275c-.388 0-.581.181-.581.544V23.3c0 .164.054.296.16.396a.549.549 0 0 0 .384.149h1.287a.55.55 0 0 0 .414-.161.533.533 0 0 0 .155-.383v-6.309a7.914 7.914 0 0 0 2.477 1.714c.941.417 1.961.625 3.06.625a7.959 7.959 0 0 0 4.074-1.12 8.394 8.394 0 0 0 2.929-2.931c.359-.607.635-1.254.83-1.942.194-.688.29-1.404.29-2.146a7.895 7.895 0 0 0-1.12-4.082zM126 13.406a6.116 6.116 0 0 1-1.2 1.874 5.83 5.83 0 0 1-1.781 1.292c-.68.32-1.41.483-2.185.483a5.14 5.14 0 0 1-2.202-.483 5.888 5.888 0 0 1-1.794-1.292 6.155 6.155 0 0 1-1.212-1.874 5.679 5.679 0 0 1-.446-2.214c0-.768.15-1.516.446-2.22a5.965 5.965 0 0 1 1.212-1.85 5.895 5.895 0 0 1 1.794-1.262 5.228 5.228 0 0 1 2.202-.47c.784 0 1.503.158 2.185.47a5.807 5.807 0 0 1 1.781 1.262 5.919 5.919 0 0 1 1.2 1.85c.294.704.44 1.444.44 2.22 0 .776-.146 1.505-.44 2.214z" fill="url(#kuhjuo45lg)" transform="translate(6.4 20.8)"/>
        <path d="M146.434 3.362h-1.274c-.363 0-.545.181-.545.544v1.51a7.894 7.894 0 0 0-2.475-1.713 7.46 7.46 0 0 0-3.056-.625c-.742 0-1.456.098-2.141.291a8.166 8.166 0 0 0-3.577 2.097 8.419 8.419 0 0 0-1.28 1.645 7.964 7.964 0 0 0-1.12 4.082c0 .742.097 1.458.29 2.146.194.688.47 1.336.83 1.942.359.607.785 1.157 1.28 1.651a8.422 8.422 0 0 0 1.646 1.28 7.97 7.97 0 0 0 4.072 1.12 7.46 7.46 0 0 0 3.056-.625 7.897 7.897 0 0 0 2.475-1.713v1.546c0 .15.052.277.155.383a.55.55 0 0 0 .415.161h1.287c.149 0 .276-.049.383-.149a.513.513 0 0 0 .161-.396V3.906c0-.363-.193-.544-.582-.544zm-2.14 10.044c-.297.71-.701 1.335-1.212 1.874-.51.54-1.11.971-1.798 1.292a5.118 5.118 0 0 1-2.194.483c-.774 0-1.502-.161-2.182-.483a5.845 5.845 0 0 1-1.78-1.292 6.141 6.141 0 0 1-1.2-1.874 5.738 5.738 0 0 1-.438-2.214c0-.768.147-1.516.439-2.22a5.908 5.908 0 0 1 1.199-1.85 5.837 5.837 0 0 1 1.78-1.262 5.147 5.147 0 0 1 2.182-.47c.775 0 1.507.158 2.194.47a5.839 5.839 0 0 1 3.01 3.111c.296.705.444 1.445.444 2.22 0 .777-.149 1.506-.445 2.215z" fill="url(#p7958w6c4h)" transform="translate(6.4 20.8)"/>
        <path d="M162.274 3.362h-1.373a.646.646 0 0 0-.408.124.792.792 0 0 0-.248.333l-.6 1.571-.792 2.06c-.285.738-.58 1.499-.885 2.282l-.872 2.244c-.276.713-.53 1.36-.76 1.942-.231.581-.413 1.041-.545 1.38a625.359 625.359 0 0 1-2.235-5.554c-.31-.783-.607-1.545-.897-2.282l-.804-2.06c-.247-.635-.449-1.159-.606-1.57a.792.792 0 0 0-.248-.334.649.649 0 0 0-.408-.124h-1.3c-.38 0-.57.144-.57.432a1.024 1.024 0 0 0 .05.334l5.742 13.966-2.066 4.985a.64.64 0 0 1-.025.117.677.677 0 0 0-.026.18c0 .304.199.457.594.457h1.225c.322 0 .541-.153.656-.458v.026l4.95-12.123 2.91-7.162a.64.64 0 0 1 .036-.136.809.809 0 0 0 .038-.111.346.346 0 0 0 .012-.087c0-.288-.182-.433-.545-.433z" fill="url(#hqo81aj4li)" transform="translate(6.4 20.8)"/>
        <path d="M186.372 5.076a5.567 5.567 0 0 0-1.95-1.436c-.775-.35-1.67-.526-2.684-.526-.545 0-1.08.05-1.603.15a5.65 5.65 0 0 0-1.473.488 4.722 4.722 0 0 0-1.237.885 4.262 4.262 0 0 0-.898 1.324c-.495-.924-1.155-1.626-1.98-2.11-.825-.482-1.889-.723-3.192-.723-.544 0-1.024.054-1.436.16a4.37 4.37 0 0 0-1.108.446c-.325.19-.62.41-.884.662a8.073 8.073 0 0 0-.742.81V3.92a.531.531 0 0 0-.155-.383.55.55 0 0 0-.415-.16h-1.287a.541.541 0 0 0-.383.148.513.513 0 0 0-.16.396v14.622c0 .362.193.544.58.544h1.275c.363 0 .545-.182.545-.544V9.4c0-.627.119-1.183.359-1.669.239-.486.55-.895.935-1.225.383-.33.814-.579 1.292-.748.478-.17.953-.254 1.423-.254.742 0 1.37.133 1.881.397.512.264.922.606 1.232 1.027.309.42.532.888.668 1.403.136.516.204 1.021.204 1.516v8.437c0 .288.043.494.13.618.086.124.282.185.587.185h.916c.222 0 .406-.07.55-.21.144-.14.216-.35.216-.63v-8.4c0-.676.09-1.284.273-1.824.181-.54.443-.998.786-1.373.342-.375.76-.662 1.255-.86.495-.198 1.056-.296 1.684-.296.742 0 1.37.132 1.881.396.512.264.921.606 1.231 1.027.31.42.533.888.668 1.404.136.515.205 1.02.205 1.515v8.437c0 .288.043.495.13.618.086.124.282.186.587.186h.915c.223 0 .407-.07.55-.21.145-.14.217-.35.217-.63v-8.4c0-.931-.135-1.806-.402-2.622a6.163 6.163 0 0 0-1.189-2.134l.003-.006z" fill="url(#q18h9vxiqj)" transform="translate(6.4 20.8)"/>
        <path d="M205.2 6.293a7.774 7.774 0 0 0-1.318-1.36 7.98 7.98 0 0 0-1.578-.996 8.491 8.491 0 0 0-1.758-.612 8.197 8.197 0 0 0-1.844-.21c-.783 0-1.528.097-2.233.29a8.167 8.167 0 0 0-1.968.823 7.82 7.82 0 0 0-1.64 1.274 7.934 7.934 0 0 0-1.244 1.645 8.305 8.305 0 0 0-1.07 4.094c0 .742.098 1.458.296 2.146.199.688.479 1.334.841 1.936a8.479 8.479 0 0 0 2.951 2.926c.607.359 1.252.635 1.937.828.685.194 1.394.29 2.129.29.52 0 1.013-.045 1.479-.135.466-.091.91-.218 1.33-.383.42-.165.823-.36 1.206-.587.383-.227.753-.48 1.108-.76.173-.14.294-.262.365-.366.07-.103.106-.199.106-.29a.411.411 0 0 0-.037-.18.716.716 0 0 0-.099-.154 5.786 5.786 0 0 1-.149-.198c-.066-.083-.15-.193-.253-.334l-.403-.544c-.115-.149-.235-.222-.36-.222a.472.472 0 0 0-.265.086 2.37 2.37 0 0 0-.241.185l-.025.025c-.24.199-.487.39-.743.576-.256.185-.535.35-.835.494a4.96 4.96 0 0 1-1.002.346c-.368.087-.777.13-1.231.13a5.085 5.085 0 0 1-1.869-.353 5.761 5.761 0 0 1-1.64-.978 6.261 6.261 0 0 1-1.262-1.466 5.64 5.64 0 0 1-.737-1.83h13.043c.363 0 .544-.194.544-.581.017-1.18-.103-2.222-.359-3.13a7.366 7.366 0 0 0-1.176-2.425h.004zm-12.041 3.736c.164-.767.474-1.47.927-2.108a6.27 6.27 0 0 1 1.62-1.59c.47-.289.968-.504 1.492-.644a6.111 6.111 0 0 1 1.59-.21 5.959 5.959 0 0 1 3.664 1.249c.503.396.921.874 1.257 1.435.334.56.546 1.183.636 1.867H193.16v.001z" fill="url(#9fmvk36isk)" transform="translate(6.4 20.8)"/>
        <path d="M220.926 5.088a5.567 5.567 0 0 0-1.948-1.436c-.776-.35-1.67-.526-2.686-.526a4.962 4.962 0 0 0-2.667.737c-.359.218-.682.466-.972.742-.288.276-.549.558-.78.848V3.919a.531.531 0 0 0-.154-.383.55.55 0 0 0-.415-.161h-1.287a.541.541 0 0 0-.383.149.513.513 0 0 0-.16.396v14.622c0 .362.192.544.58.544h1.275c.363 0 .545-.182.545-.544V9.4c0-.627.134-1.183.402-1.67a4.045 4.045 0 0 1 1.021-1.224c.412-.33.87-.579 1.373-.748.504-.17.99-.254 1.46-.254.743 0 1.37.132 1.882.397.512.264.921.606 1.231 1.026.31.42.532.89.668 1.404.136.515.204 1.021.204 1.516v8.436c0 .289.044.495.13.619.087.124.283.185.588.185h.915c.222 0 .406-.07.55-.21.145-.14.217-.351.217-.63v-8.4c0-.932-.135-1.806-.403-2.623a6.163 6.163 0 0 0-1.188-2.134l.002-.002z" fill="url(#skwhm43xal)" transform="translate(6.4 20.8)"/>
        <path d="M230.38 3.35h-1.721V.69c0-.099-.005-.192-.012-.279a.576.576 0 0 0-.069-.23.348.348 0 0 0-.179-.148.715.715 0 0 0-.334-.025c-.23.04-.445.078-.644.111-.164.034-.324.06-.477.08-.152.021-.253.04-.302.056a.647.647 0 0 0-.297.155c-.058.061-.087.163-.087.303v2.634h-1.435c-.207 0-.36.027-.458.08-.099.055-.149.188-.149.403v1.15c0 .216.05.354.149.415.098.062.251.092.458.092h1.435v10.725c0 .61.098 1.11.291 1.502.194.392.444.701.749.928.305.227.65.386 1.033.476.383.09.765.136 1.145.136a.63.63 0 0 0 .458-.167.599.599 0 0 0 .173-.452V17.62c0-.205-.063-.366-.187-.482a.661.661 0 0 0-.47-.173c-.247 0-.44-.058-.58-.173-.141-.115-.211-.317-.211-.607V5.49h1.72c.19 0 .328-.046.415-.136.086-.09.13-.242.13-.457v-.978c0-.214-.044-.363-.13-.446-.087-.082-.225-.123-.415-.123z" fill="url(#pkmoyk3bpm)" transform="translate(6.4 20.8)"/>
        <path d="M242.813 12.918a4.202 4.202 0 0 0-1.076-1.355 6.712 6.712 0 0 0-1.664-1.002 12.54 12.54 0 0 0-2.147-.693 8.51 8.51 0 0 1-1.052-.333 5.514 5.514 0 0 1-1.002-.507 3.194 3.194 0 0 1-.754-.662 1.236 1.236 0 0 1-.297-.797c0-.38.08-.708.242-.984.16-.276.374-.505.644-.687.268-.181.57-.313.91-.396a4.397 4.397 0 0 1 1.05-.124c.404 0 .754.048 1.046.142.293.095.555.222.785.383.231.16.438.345.62.55.18.207.366.42.557.644.115.14.222.235.322.284.098.05.242.02.433-.086l.965-.73c.156-.116.23-.233.222-.353a1.013 1.013 0 0 0-.16-.427c-.323-.437-.631-.822-.93-1.156a4.694 4.694 0 0 0-.977-.84 4.09 4.09 0 0 0-1.22-.514c-.458-.115-1.004-.173-1.64-.173-.776 0-1.482.107-2.122.322a4.959 4.959 0 0 0-1.646.903 4.097 4.097 0 0 0-1.07 1.398 4.193 4.193 0 0 0-.383 1.806c0 .602.107 1.145.322 1.627.215.482.526.911.934 1.286.409.374.904.705 1.485.99.582.284 1.244.525 1.986.723.42.116.844.227 1.27.334.424.107.808.25 1.15.427.343.177.621.402.835.673.215.273.322.63.322 1.076 0 .412-.113.769-.34 1.07a2.725 2.725 0 0 1-.84.737c-.335.19-.692.33-1.071.42a4.47 4.47 0 0 1-1.04.136c-.23 0-.507-.04-.829-.118a4.469 4.469 0 0 1-.952-.353 3.828 3.828 0 0 1-.873-.6 2.198 2.198 0 0 1-.587-.848 1.08 1.08 0 0 0-.273-.378c-.115-.103-.276-.112-.483-.03l-1.175.543a.859.859 0 0 0-.192.124.365.365 0 0 0-.099.142.35.35 0 0 0-.006.198c.017.078.046.179.087.302.205.561.507 1.048.903 1.46.397.411.838.754 1.324 1.026a6.064 6.064 0 0 0 1.554.607c.549.132 1.082.198 1.603.198.825 0 1.588-.107 2.288-.322a5.466 5.466 0 0 0 1.813-.921c.507-.4.904-.886 1.188-1.46.285-.572.427-1.218.427-1.935 0-.65-.129-1.235-.383-1.75l-.004.003z" fill="url(#e4mj3dcptn)" transform="translate(6.4 20.8)"/>
    </g>
</svg>
